<mxfile host="65bd71144e">
    <diagram id="zMS_hm-DmMSQR-6CMfiE" name="paramater">
        <mxGraphModel dx="1958" dy="904" grid="1" gridSize="10" guides="1" tooltips="1" connect="1" arrows="1" fold="1" page="1" pageScale="1" pageWidth="850" pageHeight="1100" math="0" shadow="0">
            <root>
                <mxCell id="0"/>
                <mxCell id="1" parent="0"/>
                <mxCell id="_Ly7lQQYx-zKTOWh85lI-11" value="" style="group" vertex="1" connectable="0" parent="1">
                    <mxGeometry y="200" width="840" height="240" as="geometry"/>
                </mxCell>
                <mxCell id="2" value="&lt;font style=&quot;font-size: 20px;&quot; color=&quot;#000000&quot;&gt;model&lt;/font&gt;" style="rounded=0;whiteSpace=wrap;html=1;fillColor=#fad7ac;strokeColor=#b46504;" vertex="1" parent="_Ly7lQQYx-zKTOWh85lI-11">
                    <mxGeometry x="320" width="200" height="80" as="geometry"/>
                </mxCell>
                <mxCell id="3" value="&lt;font color=&quot;#000000&quot;&gt;&lt;span style=&quot;font-size: 20px;&quot;&gt;usecase&lt;/span&gt;&lt;/font&gt;" style="rounded=0;whiteSpace=wrap;html=1;fillColor=#fad9d5;strokeColor=#ae4132;" vertex="1" parent="_Ly7lQQYx-zKTOWh85lI-11">
                    <mxGeometry x="320" y="160" width="200" height="80" as="geometry"/>
                </mxCell>
                <mxCell id="7" style="edgeStyle=none;html=1;fontSize=20;fontColor=#000000;" edge="1" parent="_Ly7lQQYx-zKTOWh85lI-11" source="2" target="3">
                    <mxGeometry relative="1" as="geometry"/>
                </mxCell>
                <mxCell id="9" style="edgeStyle=none;html=1;entryX=1;entryY=0.5;entryDx=0;entryDy=0;fontSize=20;fontColor=#000000;" edge="1" parent="_Ly7lQQYx-zKTOWh85lI-11" source="4" target="3">
                    <mxGeometry relative="1" as="geometry"/>
                </mxCell>
                <mxCell id="4" value="&lt;font style=&quot;font-size: 20px;&quot; color=&quot;#000000&quot;&gt;handler&lt;/font&gt;" style="rounded=0;whiteSpace=wrap;html=1;fillColor=#d5e8d4;strokeColor=#82b366;" vertex="1" parent="_Ly7lQQYx-zKTOWh85lI-11">
                    <mxGeometry x="640" y="160" width="200" height="80" as="geometry"/>
                </mxCell>
                <mxCell id="8" style="edgeStyle=none;html=1;entryX=0.5;entryY=0;entryDx=0;entryDy=0;fontSize=20;fontColor=#000000;exitX=1;exitY=0.5;exitDx=0;exitDy=0;" edge="1" parent="_Ly7lQQYx-zKTOWh85lI-11" source="2" target="4">
                    <mxGeometry relative="1" as="geometry"/>
                </mxCell>
                <mxCell id="5" value="&lt;font color=&quot;#000000&quot;&gt;&lt;span style=&quot;font-size: 20px;&quot;&gt;store&lt;/span&gt;&lt;/font&gt;" style="rounded=0;whiteSpace=wrap;html=1;fillColor=#b0e3e6;strokeColor=#0e8088;" vertex="1" parent="_Ly7lQQYx-zKTOWh85lI-11">
                    <mxGeometry y="160" width="200" height="80" as="geometry"/>
                </mxCell>
                <mxCell id="11" style="edgeStyle=none;html=1;exitX=0;exitY=0.5;exitDx=0;exitDy=0;entryX=0.5;entryY=0;entryDx=0;entryDy=0;fontSize=20;fontColor=#000000;" edge="1" parent="_Ly7lQQYx-zKTOWh85lI-11" source="2" target="5">
                    <mxGeometry relative="1" as="geometry"/>
                </mxCell>
                <mxCell id="10" style="edgeStyle=none;html=1;entryX=1;entryY=0.5;entryDx=0;entryDy=0;fontSize=20;fontColor=#000000;" edge="1" parent="_Ly7lQQYx-zKTOWh85lI-11" source="3" target="5">
                    <mxGeometry relative="1" as="geometry"/>
                </mxCell>
            </root>
        </mxGraphModel>
    </diagram>
    <diagram id="xJrcsmJfNhey1eITxY7i" name="required">
        <mxGraphModel dx="1958" dy="904" grid="1" gridSize="10" guides="1" tooltips="1" connect="1" arrows="1" fold="1" page="1" pageScale="1" pageWidth="850" pageHeight="1100" math="0" shadow="0">
            <root>
                <mxCell id="0"/>
                <mxCell id="1" parent="0"/>
                <mxCell id="5I8uoUaheojJf5ZA08Hx-1" value="" style="group" vertex="1" connectable="0" parent="1">
                    <mxGeometry x="175" y="80" width="500" height="338" as="geometry"/>
                </mxCell>
                <mxCell id="5I8uoUaheojJf5ZA08Hx-2" value="" style="ellipse;whiteSpace=wrap;html=1;aspect=fixed;fontSize=20;fillColor=#d5e8d4;strokeColor=#82b366;" vertex="1" parent="5I8uoUaheojJf5ZA08Hx-1">
                    <mxGeometry y="18" width="320" height="320" as="geometry"/>
                </mxCell>
                <mxCell id="5I8uoUaheojJf5ZA08Hx-3" value="" style="ellipse;whiteSpace=wrap;html=1;aspect=fixed;fontSize=20;fillColor=#fad9d5;strokeColor=#ae4132;" vertex="1" parent="5I8uoUaheojJf5ZA08Hx-1">
                    <mxGeometry x="60" y="58" width="240" height="240" as="geometry"/>
                </mxCell>
                <mxCell id="5I8uoUaheojJf5ZA08Hx-4" value="" style="ellipse;whiteSpace=wrap;html=1;aspect=fixed;fontSize=20;fillColor=#b0e3e6;strokeColor=#0e8088;" vertex="1" parent="5I8uoUaheojJf5ZA08Hx-1">
                    <mxGeometry x="120" y="98" width="160" height="160" as="geometry"/>
                </mxCell>
                <mxCell id="5I8uoUaheojJf5ZA08Hx-5" value="" style="ellipse;whiteSpace=wrap;html=1;aspect=fixed;fontSize=20;fillColor=#ffe6cc;strokeColor=#d79b00;" vertex="1" parent="5I8uoUaheojJf5ZA08Hx-1">
                    <mxGeometry x="260" y="138" width="80" height="80" as="geometry"/>
                </mxCell>
                <mxCell id="5I8uoUaheojJf5ZA08Hx-6" value="" style="shape=flexArrow;endArrow=classic;html=1;fontSize=20;fontColor=#000000;fillColor=default;" edge="1" parent="5I8uoUaheojJf5ZA08Hx-1">
                    <mxGeometry width="50" height="50" relative="1" as="geometry">
                        <mxPoint x="30" y="178" as="sourcePoint"/>
                        <mxPoint x="72" y="177.71000000000004" as="targetPoint"/>
                        <Array as="points">
                            <mxPoint x="52" y="177.71000000000004"/>
                        </Array>
                    </mxGeometry>
                </mxCell>
                <mxCell id="5I8uoUaheojJf5ZA08Hx-7" value="" style="shape=flexArrow;endArrow=classic;html=1;fontSize=20;fontColor=#000000;fillColor=default;" edge="1" parent="5I8uoUaheojJf5ZA08Hx-1">
                    <mxGeometry width="50" height="50" relative="1" as="geometry">
                        <mxPoint x="90" y="178" as="sourcePoint"/>
                        <mxPoint x="132" y="177.71000000000004" as="targetPoint"/>
                        <Array as="points">
                            <mxPoint x="112" y="177.71000000000004"/>
                        </Array>
                    </mxGeometry>
                </mxCell>
                <mxCell id="5I8uoUaheojJf5ZA08Hx-8" value="" style="endArrow=none;html=1;fontSize=20;fontColor=#000000;fillColor=default;" edge="1" parent="5I8uoUaheojJf5ZA08Hx-1">
                    <mxGeometry width="50" height="50" relative="1" as="geometry">
                        <mxPoint x="230" y="58" as="sourcePoint"/>
                        <mxPoint x="360" y="18" as="targetPoint"/>
                        <Array as="points">
                            <mxPoint x="280" y="18"/>
                        </Array>
                    </mxGeometry>
                </mxCell>
                <mxCell id="5I8uoUaheojJf5ZA08Hx-9" value="" style="endArrow=none;html=1;fontSize=20;fontColor=#000000;fillColor=default;" edge="1" parent="5I8uoUaheojJf5ZA08Hx-1">
                    <mxGeometry width="50" height="50" relative="1" as="geometry">
                        <mxPoint x="250" y="98" as="sourcePoint"/>
                        <mxPoint x="380" y="58" as="targetPoint"/>
                        <Array as="points">
                            <mxPoint x="300" y="58"/>
                        </Array>
                    </mxGeometry>
                </mxCell>
                <mxCell id="5I8uoUaheojJf5ZA08Hx-10" value="" style="endArrow=none;html=1;fontSize=20;fontColor=#000000;fillColor=default;" edge="1" parent="5I8uoUaheojJf5ZA08Hx-1">
                    <mxGeometry width="50" height="50" relative="1" as="geometry">
                        <mxPoint x="250" y="138" as="sourcePoint"/>
                        <mxPoint x="400" y="98" as="targetPoint"/>
                        <Array as="points">
                            <mxPoint x="300" y="98"/>
                        </Array>
                    </mxGeometry>
                </mxCell>
                <mxCell id="5I8uoUaheojJf5ZA08Hx-11" value="" style="endArrow=none;html=1;fontSize=20;fontColor=#000000;fillColor=default;" edge="1" parent="5I8uoUaheojJf5ZA08Hx-1">
                    <mxGeometry width="50" height="50" relative="1" as="geometry">
                        <mxPoint x="320" y="168" as="sourcePoint"/>
                        <mxPoint x="430" y="138" as="targetPoint"/>
                        <Array as="points">
                            <mxPoint x="350" y="138"/>
                        </Array>
                    </mxGeometry>
                </mxCell>
                <mxCell id="5I8uoUaheojJf5ZA08Hx-12" value="&lt;span style=&quot;font-size: 16px;&quot;&gt;handler&lt;/span&gt;" style="text;html=1;strokeColor=none;fillColor=none;align=center;verticalAlign=middle;whiteSpace=wrap;rounded=0;fontSize=20;fontColor=#FFFFFF;" vertex="1" parent="5I8uoUaheojJf5ZA08Hx-1">
                    <mxGeometry x="368" width="60" height="30" as="geometry"/>
                </mxCell>
                <mxCell id="5I8uoUaheojJf5ZA08Hx-13" value="&lt;span style=&quot;font-size: 16px;&quot;&gt;service&lt;/span&gt;" style="text;html=1;strokeColor=none;fillColor=none;align=center;verticalAlign=middle;whiteSpace=wrap;rounded=0;fontSize=20;fontColor=#FFFFFF;" vertex="1" parent="5I8uoUaheojJf5ZA08Hx-1">
                    <mxGeometry x="390" y="41" width="60" height="30" as="geometry"/>
                </mxCell>
                <mxCell id="5I8uoUaheojJf5ZA08Hx-14" value="&lt;span style=&quot;font-size: 16px;&quot;&gt;store&lt;/span&gt;" style="text;html=1;strokeColor=none;fillColor=none;align=center;verticalAlign=middle;whiteSpace=wrap;rounded=0;fontSize=20;fontColor=#FFFFFF;" vertex="1" parent="5I8uoUaheojJf5ZA08Hx-1">
                    <mxGeometry x="410" y="81" width="60" height="30" as="geometry"/>
                </mxCell>
                <mxCell id="5I8uoUaheojJf5ZA08Hx-15" value="&lt;span style=&quot;font-size: 16px;&quot;&gt;model&lt;/span&gt;" style="text;html=1;strokeColor=none;fillColor=none;align=center;verticalAlign=middle;whiteSpace=wrap;rounded=0;fontSize=20;fontColor=#FFFFFF;" vertex="1" parent="5I8uoUaheojJf5ZA08Hx-1">
                    <mxGeometry x="440" y="121" width="60" height="30" as="geometry"/>
                </mxCell>
            </root>
        </mxGraphModel>
    </diagram>
    <diagram id="N84J-4TaOoTIBgQrcUab" name="entity">
        <mxGraphModel dx="1958" dy="904" grid="1" gridSize="10" guides="1" tooltips="1" connect="1" arrows="1" fold="1" page="1" pageScale="1" pageWidth="850" pageHeight="1100" math="0" shadow="0">
            <root>
                <mxCell id="0"/>
                <mxCell id="1" parent="0"/>
                <mxCell id="JHj2_9FZa3EyoMi1A_vQ-16" style="edgeStyle=none;html=1;fontSize=16;fontColor=#000000;fillColor=default;" edge="1" parent="1" source="JHj2_9FZa3EyoMi1A_vQ-2" target="JHj2_9FZa3EyoMi1A_vQ-6">
                    <mxGeometry relative="1" as="geometry"/>
                </mxCell>
                <mxCell id="JHj2_9FZa3EyoMi1A_vQ-17" style="edgeStyle=none;html=1;entryX=0;entryY=0.5;entryDx=0;entryDy=0;fontSize=16;fontColor=#000000;fillColor=default;" edge="1" parent="1" target="JHj2_9FZa3EyoMi1A_vQ-3">
                    <mxGeometry relative="1" as="geometry">
                        <mxPoint x="280" y="120" as="sourcePoint"/>
                    </mxGeometry>
                </mxCell>
                <mxCell id="JHj2_9FZa3EyoMi1A_vQ-18" style="edgeStyle=none;html=1;entryX=0;entryY=0.5;entryDx=0;entryDy=0;fontSize=16;fontColor=#000000;fillColor=default;" edge="1" parent="1" source="JHj2_9FZa3EyoMi1A_vQ-2" target="JHj2_9FZa3EyoMi1A_vQ-8">
                    <mxGeometry relative="1" as="geometry"/>
                </mxCell>
                <mxCell id="JHj2_9FZa3EyoMi1A_vQ-2" value="&lt;font style=&quot;font-size: 20px;&quot; color=&quot;#000000&quot;&gt;model&lt;/font&gt;" style="rounded=0;whiteSpace=wrap;html=1;fillColor=#fad7ac;strokeColor=#b46504;" vertex="1" parent="1">
                    <mxGeometry x="80" y="80" width="200" height="80" as="geometry"/>
                </mxCell>
                <mxCell id="JHj2_9FZa3EyoMi1A_vQ-20" style="edgeStyle=none;html=1;entryX=0.5;entryY=0;entryDx=0;entryDy=0;fontSize=16;fontColor=#000000;fillColor=default;" edge="1" parent="1" source="JHj2_9FZa3EyoMi1A_vQ-3" target="JHj2_9FZa3EyoMi1A_vQ-8">
                    <mxGeometry relative="1" as="geometry"/>
                </mxCell>
                <mxCell id="JHj2_9FZa3EyoMi1A_vQ-3" value="&lt;font color=&quot;#000000&quot;&gt;&lt;span style=&quot;font-size: 20px;&quot;&gt;entityService&lt;/span&gt;&lt;/font&gt;" style="rounded=0;whiteSpace=wrap;html=1;fillColor=#fad9d5;strokeColor=#ae4132;" vertex="1" parent="1">
                    <mxGeometry x="480" y="240" width="200" height="80" as="geometry"/>
                </mxCell>
                <mxCell id="JHj2_9FZa3EyoMi1A_vQ-19" style="edgeStyle=none;html=1;entryX=0.5;entryY=0;entryDx=0;entryDy=0;fontSize=16;fontColor=#000000;fillColor=default;" edge="1" parent="1" source="JHj2_9FZa3EyoMi1A_vQ-6" target="JHj2_9FZa3EyoMi1A_vQ-3">
                    <mxGeometry relative="1" as="geometry"/>
                </mxCell>
                <mxCell id="JHj2_9FZa3EyoMi1A_vQ-6" value="&lt;font color=&quot;#000000&quot;&gt;&lt;span style=&quot;font-size: 20px;&quot;&gt;entityHandler&lt;/span&gt;&lt;/font&gt;" style="rounded=0;whiteSpace=wrap;html=1;fillColor=#d5e8d4;strokeColor=#82b366;" vertex="1" parent="1">
                    <mxGeometry x="480" y="80" width="200" height="80" as="geometry"/>
                </mxCell>
                <mxCell id="JHj2_9FZa3EyoMi1A_vQ-8" value="&lt;font color=&quot;#000000&quot;&gt;&lt;span style=&quot;font-size: 20px;&quot;&gt;&lt;br&gt;store&lt;/span&gt;&lt;/font&gt;" style="rounded=0;whiteSpace=wrap;html=1;fillColor=#b0e3e6;strokeColor=#0e8088;verticalAlign=top;" vertex="1" parent="1">
                    <mxGeometry x="400" y="400" width="360" height="190" as="geometry"/>
                </mxCell>
                <mxCell id="JHj2_9FZa3EyoMi1A_vQ-12" value="&lt;font color=&quot;#000000&quot;&gt;entityStore&lt;/font&gt;" style="rounded=1;whiteSpace=wrap;html=1;fontSize=16;fillColor=#f5f5f5;gradientColor=#b3b3b3;strokeColor=#666666;" vertex="1" parent="1">
                    <mxGeometry x="410" y="480" width="100" height="60" as="geometry"/>
                </mxCell>
                <mxCell id="JHj2_9FZa3EyoMi1A_vQ-14" value="&lt;span style=&quot;color: rgb(0, 0, 0);&quot;&gt;entityStore&lt;/span&gt;" style="rounded=1;whiteSpace=wrap;html=1;fontSize=16;fillColor=#f5f5f5;gradientColor=#b3b3b3;strokeColor=#666666;" vertex="1" parent="1">
                    <mxGeometry x="530" y="480" width="100" height="60" as="geometry"/>
                </mxCell>
                <mxCell id="JHj2_9FZa3EyoMi1A_vQ-15" value="&lt;span style=&quot;color: rgb(0, 0, 0);&quot;&gt;entityStore&lt;/span&gt;" style="rounded=1;whiteSpace=wrap;html=1;fontSize=16;fillColor=#f5f5f5;gradientColor=#b3b3b3;strokeColor=#666666;" vertex="1" parent="1">
                    <mxGeometry x="650" y="480" width="100" height="60" as="geometry"/>
                </mxCell>
            </root>
        </mxGraphModel>
    </diagram>
</mxfile>